<svg width="344" height="68" viewBox="0 0 344 68" fill="none" xmlns="http://www.w3.org/2000/svg">
<rect width="344" height="68" rx="34" fill="white"/>
<path d="M122.358 44H120.511L125.852 29.4545H127.67L133.011 44H131.165L126.818 31.7557H126.705L122.358 44ZM123.04 38.3182H130.483V39.8807H123.04V38.3182ZM139.169 44.2273C138.26 44.2273 137.457 43.9976 136.761 43.5384C136.065 43.0743 135.521 42.4209 135.128 41.5781C134.735 40.7306 134.538 39.7292 134.538 38.5739C134.538 37.428 134.735 36.4337 135.128 35.5909C135.521 34.7481 136.068 34.0971 136.768 33.6378C137.469 33.1785 138.279 32.9489 139.197 32.9489C139.908 32.9489 140.469 33.0672 140.881 33.304C141.297 33.536 141.615 33.8011 141.832 34.0994C142.055 34.393 142.228 34.6345 142.351 34.8239H142.493V29.4545H144.169V44H142.55V42.3239H142.351C142.228 42.5227 142.053 42.7737 141.825 43.0767C141.598 43.375 141.274 43.6425 140.852 43.8793C140.431 44.1113 139.87 44.2273 139.169 44.2273ZM139.396 42.7216C140.069 42.7216 140.637 42.5464 141.101 42.196C141.565 41.8409 141.918 41.3509 142.159 40.7259C142.401 40.0961 142.521 39.3693 142.521 38.5455C142.521 37.7311 142.403 37.0185 142.166 36.4077C141.929 35.7921 141.579 35.3139 141.115 34.973C140.651 34.6274 140.078 34.4545 139.396 34.4545C138.686 34.4545 138.094 34.6368 137.621 35.0014C137.152 35.3613 136.799 35.8513 136.562 36.4716C136.33 37.0871 136.214 37.7784 136.214 38.5455C136.214 39.322 136.333 40.0275 136.57 40.6619C136.811 41.2917 137.166 41.7936 137.635 42.1676C138.108 42.5369 138.696 42.7216 139.396 42.7216ZM147.472 44V33.0909H149.148V44H147.472ZM148.324 31.2727C147.997 31.2727 147.715 31.1615 147.479 30.9389C147.247 30.7164 147.131 30.4489 147.131 30.1364C147.131 29.8239 147.247 29.5563 147.479 29.3338C147.715 29.1113 147.997 29 148.324 29C148.651 29 148.93 29.1113 149.162 29.3338C149.399 29.5563 149.517 29.8239 149.517 30.1364C149.517 30.4489 149.399 30.7164 149.162 30.9389C148.93 31.1615 148.651 31.2727 148.324 31.2727ZM156.65 44.2273C155.627 44.2273 154.746 43.9858 154.007 43.5028C153.269 43.0199 152.701 42.3546 152.303 41.5071C151.905 40.6596 151.706 39.6913 151.706 38.6023C151.706 37.4943 151.91 36.5166 152.317 35.669C152.729 34.8168 153.302 34.1515 154.036 33.6733C154.775 33.1903 155.636 32.9489 156.621 32.9489C157.388 32.9489 158.079 33.0909 158.695 33.375C159.31 33.6591 159.815 34.0568 160.208 34.5682C160.601 35.0795 160.845 35.6761 160.939 36.358H159.263C159.135 35.8608 158.851 35.4205 158.411 35.0369C157.975 34.6487 157.388 34.4545 156.65 34.4545C155.996 34.4545 155.423 34.625 154.931 34.9659C154.443 35.3021 154.062 35.7779 153.787 36.3935C153.517 37.0043 153.382 37.7216 153.382 38.5455C153.382 39.3883 153.515 40.1222 153.78 40.7472C154.05 41.3722 154.429 41.8575 154.917 42.2031C155.409 42.5488 155.987 42.7216 156.65 42.7216C157.085 42.7216 157.48 42.6458 157.836 42.4943C158.191 42.3428 158.491 42.125 158.738 41.8409C158.984 41.5568 159.159 41.2159 159.263 40.8182H160.939C160.845 41.4621 160.61 42.0421 160.236 42.5582C159.867 43.0696 159.377 43.4768 158.766 43.7798C158.16 44.0781 157.454 44.2273 156.65 44.2273ZM163.39 44V33.0909H165.066V44H163.39ZM164.242 31.2727C163.915 31.2727 163.633 31.1615 163.397 30.9389C163.165 30.7164 163.049 30.4489 163.049 30.1364C163.049 29.8239 163.165 29.5563 163.397 29.3338C163.633 29.1113 163.915 29 164.242 29C164.569 29 164.848 29.1113 165.08 29.3338C165.317 29.5563 165.435 29.8239 165.435 30.1364C165.435 30.4489 165.317 30.7164 165.08 30.9389C164.848 31.1615 164.569 31.2727 164.242 31.2727ZM172.567 44.2273C171.583 44.2273 170.719 43.9929 169.975 43.5241C169.237 43.0554 168.659 42.3996 168.242 41.5568C167.83 40.714 167.624 39.7292 167.624 38.6023C167.624 37.4659 167.83 36.474 168.242 35.6264C168.659 34.7789 169.237 34.1207 169.975 33.652C170.719 33.1832 171.583 32.9489 172.567 32.9489C173.552 32.9489 174.414 33.1832 175.153 33.652C175.896 34.1207 176.474 34.7789 176.886 35.6264C177.302 36.474 177.511 37.4659 177.511 38.6023C177.511 39.7292 177.302 40.714 176.886 41.5568C176.474 42.3996 175.896 43.0554 175.153 43.5241C174.414 43.9929 173.552 44.2273 172.567 44.2273ZM172.567 42.7216C173.316 42.7216 173.931 42.5298 174.414 42.1463C174.897 41.7628 175.254 41.2585 175.487 40.6335C175.719 40.0085 175.835 39.3314 175.835 38.6023C175.835 37.8731 175.719 37.1937 175.487 36.5639C175.254 35.9342 174.897 35.4252 174.414 35.0369C173.931 34.6487 173.316 34.4545 172.567 34.4545C171.819 34.4545 171.204 34.6487 170.721 35.0369C170.238 35.4252 169.88 35.9342 169.648 36.5639C169.416 37.1937 169.3 37.8731 169.3 38.6023C169.3 39.3314 169.416 40.0085 169.648 40.6335C169.88 41.2585 170.238 41.7628 170.721 42.1463C171.204 42.5298 171.819 42.7216 172.567 42.7216ZM181.745 37.4375V44H180.069V33.0909H181.689V34.7955H181.831C182.086 34.2415 182.475 33.7964 182.995 33.4602C183.516 33.1193 184.189 32.9489 185.012 32.9489C185.751 32.9489 186.397 33.1004 186.951 33.4034C187.505 33.7017 187.936 34.1562 188.244 34.767C188.552 35.3731 188.706 36.1402 188.706 37.0682V44H187.029V37.1818C187.029 36.3248 186.807 35.6572 186.362 35.179C185.917 34.696 185.306 34.4545 184.529 34.4545C183.994 34.4545 183.516 34.5705 183.095 34.8026C182.678 35.0346 182.349 35.3731 182.108 35.8182C181.866 36.2633 181.745 36.803 181.745 37.4375ZM194.979 44.2557C194.287 44.2557 193.66 44.1255 193.097 43.8651C192.533 43.5999 192.086 43.2188 191.754 42.7216C191.423 42.2197 191.257 41.6136 191.257 40.9034C191.257 40.2784 191.38 39.7718 191.626 39.3835C191.873 38.9905 192.202 38.6828 192.614 38.4602C193.026 38.2377 193.48 38.072 193.977 37.9631C194.479 37.8494 194.983 37.7595 195.49 37.6932C196.153 37.608 196.69 37.544 197.102 37.5014C197.519 37.4541 197.822 37.3759 198.011 37.267C198.205 37.1581 198.303 36.9687 198.303 36.6989V36.642C198.303 35.9413 198.111 35.3968 197.727 35.0085C197.348 34.6203 196.773 34.4261 196.001 34.4261C195.201 34.4261 194.574 34.6013 194.119 34.9517C193.665 35.3021 193.345 35.6761 193.161 36.0739L191.57 35.5057C191.854 34.8428 192.232 34.3267 192.706 33.9574C193.184 33.5833 193.705 33.3229 194.268 33.1761C194.837 33.0246 195.395 32.9489 195.945 32.9489C196.295 32.9489 196.697 32.9915 197.152 33.0767C197.611 33.1572 198.054 33.3253 198.48 33.581C198.911 33.8366 199.268 34.2225 199.553 34.7386C199.837 35.2547 199.979 35.946 199.979 36.8125V44H198.303V42.5227H198.217C198.104 42.7595 197.914 43.0128 197.649 43.2827C197.384 43.5526 197.031 43.7822 196.591 43.9716C196.151 44.161 195.613 44.2557 194.979 44.2557ZM195.234 42.75C195.897 42.75 196.456 42.6198 196.911 42.3594C197.37 42.099 197.715 41.7628 197.947 41.3509C198.184 40.9389 198.303 40.5057 198.303 40.0511V38.517C198.232 38.6023 198.075 38.6804 197.834 38.7514C197.597 38.8177 197.322 38.8769 197.01 38.929C196.702 38.9763 196.402 39.0189 196.108 39.0568C195.819 39.09 195.585 39.1184 195.405 39.142C194.969 39.1989 194.562 39.2912 194.183 39.419C193.809 39.5421 193.506 39.7292 193.274 39.9801C193.047 40.2263 192.933 40.5625 192.933 40.9886C192.933 41.571 193.149 42.0114 193.58 42.3097C194.015 42.6032 194.567 42.75 195.234 42.75ZM203.038 44V33.0909H204.657V34.7386H204.771C204.97 34.1989 205.33 33.7609 205.85 33.4247C206.371 33.0885 206.958 32.9205 207.612 32.9205C207.735 32.9205 207.889 32.9228 208.074 32.9276C208.258 32.9323 208.398 32.9394 208.493 32.9489V34.6534C208.436 34.6392 208.306 34.6179 208.102 34.5895C207.903 34.5563 207.692 34.5398 207.47 34.5398C206.94 34.5398 206.466 34.651 206.049 34.8736C205.637 35.0914 205.311 35.3944 205.069 35.7827C204.833 36.1662 204.714 36.6042 204.714 37.0966V44H203.038Z" fill="black"/>
</svg>
