<svg width="344" height="68" viewBox="0 0 344 68" fill="none" xmlns="http://www.w3.org/2000/svg">
<rect width="344" height="68" rx="34" fill="white"/>
<path d="M69.7614 44V29.4545H71.5227V42.4375H78.2841V44H69.7614ZM80.7841 44V33.0909H82.4602V44H80.7841ZM81.6364 31.2727C81.3097 31.2727 81.0279 31.1615 80.7912 30.9389C80.5592 30.7164 80.4432 30.4489 80.4432 30.1364C80.4432 29.8239 80.5592 29.5563 80.7912 29.3338C81.0279 29.1113 81.3097 29 81.6364 29C81.9631 29 82.2424 29.1113 82.4744 29.3338C82.7112 29.5563 82.8295 29.8239 82.8295 30.1364C82.8295 30.4489 82.7112 30.7164 82.4744 30.9389C82.2424 31.1615 81.9631 31.2727 81.6364 31.2727ZM85.5302 44V33.0909H87.1495V34.7955H87.2915C87.5188 34.2131 87.8858 33.7609 88.3924 33.4389C88.899 33.1122 89.5075 32.9489 90.2177 32.9489C90.9374 32.9489 91.5363 33.1122 92.0146 33.4389C92.4975 33.7609 92.8739 34.2131 93.1438 34.7955H93.2575C93.5368 34.232 93.9558 33.7846 94.5146 33.4531C95.0733 33.117 95.7433 32.9489 96.5245 32.9489C97.4999 32.9489 98.2977 33.2543 98.918 33.8651C99.5382 34.4711 99.8484 35.4157 99.8484 36.6989V44H98.1722V36.6989C98.1722 35.8939 97.9521 35.3187 97.5117 34.973C97.0714 34.6274 96.5529 34.4545 95.9563 34.4545C95.1893 34.4545 94.5951 34.6866 94.1737 35.1506C93.7522 35.6098 93.5415 36.1922 93.5415 36.8977V44H91.837V36.5284C91.837 35.9081 91.6358 35.4086 91.2333 35.0298C90.8308 34.6463 90.3124 34.4545 89.6779 34.4545C89.2423 34.4545 88.8351 34.5705 88.4563 34.8026C88.0823 35.0346 87.7792 35.3565 87.5472 35.7685C87.32 36.1757 87.2063 36.6468 87.2063 37.1818V44H85.5302ZM102.913 48.0909V33.0909H104.532V34.8239H104.731C104.854 34.6345 105.025 34.393 105.243 34.0994C105.465 33.8011 105.782 33.536 106.194 33.304C106.611 33.0672 107.174 32.9489 107.885 32.9489C108.803 32.9489 109.613 33.1785 110.314 33.6378C111.014 34.0971 111.561 34.7481 111.954 35.5909C112.347 36.4337 112.544 37.428 112.544 38.5739C112.544 39.7292 112.347 40.7306 111.954 41.5781C111.561 42.4209 111.017 43.0743 110.321 43.5384C109.625 43.9976 108.822 44.2273 107.913 44.2273C107.212 44.2273 106.651 44.1113 106.23 43.8793C105.808 43.6425 105.484 43.375 105.257 43.0767C105.029 42.7737 104.854 42.5227 104.731 42.3239H104.589V48.0909H102.913ZM104.561 38.5455C104.561 39.3693 104.681 40.0961 104.923 40.7259C105.164 41.3509 105.517 41.8409 105.981 42.196C106.445 42.5464 107.013 42.7216 107.686 42.7216C108.386 42.7216 108.971 42.5369 109.44 42.1676C109.913 41.7936 110.269 41.2917 110.505 40.6619C110.747 40.0275 110.868 39.322 110.868 38.5455C110.868 37.7784 110.749 37.0871 110.512 36.4716C110.28 35.8513 109.928 35.3613 109.454 35.0014C108.985 34.6368 108.396 34.4545 107.686 34.4545C107.004 34.4545 106.431 34.6274 105.967 34.973C105.503 35.3139 105.153 35.7921 104.916 36.4077C104.679 37.0185 104.561 37.7311 104.561 38.5455ZM118.311 44.2557C117.619 44.2557 116.992 44.1255 116.429 43.8651C115.865 43.5999 115.418 43.2188 115.086 42.7216C114.755 42.2197 114.589 41.6136 114.589 40.9034C114.589 40.2784 114.712 39.7718 114.958 39.3835C115.205 38.9905 115.534 38.6828 115.946 38.4602C116.358 38.2377 116.812 38.072 117.309 37.9631C117.811 37.8494 118.315 37.7595 118.822 37.6932C119.485 37.608 120.022 37.544 120.434 37.5014C120.851 37.4541 121.154 37.3759 121.343 37.267C121.538 37.1581 121.635 36.9687 121.635 36.6989V36.642C121.635 35.9413 121.443 35.3968 121.059 35.0085C120.681 34.6203 120.105 34.4261 119.333 34.4261C118.533 34.4261 117.906 34.6013 117.451 34.9517C116.997 35.3021 116.677 35.6761 116.493 36.0739L114.902 35.5057C115.186 34.8428 115.565 34.3267 116.038 33.9574C116.516 33.5833 117.037 33.3229 117.6 33.1761C118.169 33.0246 118.727 32.9489 119.277 32.9489C119.627 32.9489 120.029 32.9915 120.484 33.0767C120.943 33.1572 121.386 33.3253 121.812 33.581C122.243 33.8366 122.6 34.2225 122.885 34.7386C123.169 35.2547 123.311 35.946 123.311 36.8125V44H121.635V42.5227H121.549C121.436 42.7595 121.246 43.0128 120.981 43.2827C120.716 43.5526 120.363 43.7822 119.923 43.9716C119.483 44.161 118.945 44.2557 118.311 44.2557ZM118.566 42.75C119.229 42.75 119.788 42.6198 120.243 42.3594C120.702 42.099 121.047 41.7628 121.279 41.3509C121.516 40.9389 121.635 40.5057 121.635 40.0511V38.517C121.564 38.6023 121.407 38.6804 121.166 38.7514C120.929 38.8177 120.654 38.8769 120.342 38.929C120.034 38.9763 119.734 39.0189 119.44 39.0568C119.151 39.09 118.917 39.1184 118.737 39.142C118.301 39.1989 117.894 39.2912 117.515 39.419C117.141 39.5421 116.838 39.7292 116.606 39.9801C116.379 40.2263 116.265 40.5625 116.265 40.9886C116.265 41.571 116.481 42.0114 116.912 42.3097C117.347 42.6032 117.899 42.75 118.566 42.75ZM126.37 44V33.0909H127.989V34.7386H128.103C128.302 34.1989 128.662 33.7609 129.183 33.4247C129.703 33.0885 130.29 32.9205 130.944 32.9205C131.067 32.9205 131.221 32.9228 131.406 32.9276C131.59 32.9323 131.73 32.9394 131.825 32.9489V34.6534C131.768 34.6392 131.638 34.6179 131.434 34.5895C131.235 34.5563 131.024 34.5398 130.802 34.5398C130.272 34.5398 129.798 34.651 129.381 34.8736C128.969 35.0914 128.643 35.3944 128.401 35.7827C128.165 36.1662 128.046 36.6042 128.046 37.0966V44H126.37ZM151.368 34H149.607C149.503 33.4934 149.32 33.0483 149.06 32.6648C148.804 32.2812 148.492 31.9593 148.123 31.6989C147.758 31.4337 147.353 31.2348 146.908 31.1023C146.463 30.9697 145.999 30.9034 145.516 30.9034C144.635 30.9034 143.837 31.1259 143.123 31.571C142.412 32.0161 141.846 32.6719 141.425 33.5384C141.008 34.4048 140.8 35.4678 140.8 36.7273C140.8 37.9867 141.008 39.0497 141.425 39.9162C141.846 40.7827 142.412 41.4384 143.123 41.8835C143.837 42.3286 144.635 42.5511 145.516 42.5511C145.999 42.5511 146.463 42.4848 146.908 42.3523C147.353 42.2197 147.758 42.0232 148.123 41.7628C148.492 41.4976 148.804 41.1733 149.06 40.7898C149.32 40.4015 149.503 39.9564 149.607 39.4545H151.368C151.236 40.1979 150.994 40.8632 150.644 41.4503C150.293 42.0374 149.858 42.5369 149.337 42.9489C148.816 43.3561 148.231 43.6662 147.583 43.8793C146.939 44.0923 146.25 44.1989 145.516 44.1989C144.275 44.1989 143.172 43.8958 142.206 43.2898C141.24 42.6837 140.48 41.822 139.926 40.7045C139.373 39.5871 139.096 38.2614 139.096 36.7273C139.096 35.1932 139.373 33.8674 139.926 32.75C140.48 31.6326 141.24 30.7708 142.206 30.1648C143.172 29.5587 144.275 29.2557 145.516 29.2557C146.25 29.2557 146.939 29.3622 147.583 29.5753C148.231 29.7884 148.816 30.1009 149.337 30.5128C149.858 30.92 150.293 31.4171 150.644 32.0043C150.994 32.5866 151.236 33.2519 151.368 34ZM158.419 44.2273C157.434 44.2273 156.57 43.9929 155.827 43.5241C155.088 43.0554 154.51 42.3996 154.094 41.5568C153.682 40.714 153.476 39.7292 153.476 38.6023C153.476 37.4659 153.682 36.474 154.094 35.6264C154.51 34.7789 155.088 34.1207 155.827 33.652C156.57 33.1832 157.434 32.9489 158.419 32.9489C159.404 32.9489 160.266 33.1832 161.004 33.652C161.748 34.1207 162.325 34.7789 162.737 35.6264C163.154 36.474 163.362 37.4659 163.362 38.6023C163.362 39.7292 163.154 40.714 162.737 41.5568C162.325 42.3996 161.748 43.0554 161.004 43.5241C160.266 43.9929 159.404 44.2273 158.419 44.2273ZM158.419 42.7216C159.167 42.7216 159.783 42.5298 160.266 42.1463C160.749 41.7628 161.106 41.2585 161.338 40.6335C161.57 40.0085 161.686 39.3314 161.686 38.6023C161.686 37.8731 161.57 37.1937 161.338 36.5639C161.106 35.9342 160.749 35.4252 160.266 35.0369C159.783 34.6487 159.167 34.4545 158.419 34.4545C157.671 34.4545 157.055 34.6487 156.572 35.0369C156.089 35.4252 155.732 35.9342 155.5 36.5639C155.268 37.1937 155.152 37.8731 155.152 38.6023C155.152 39.3314 155.268 40.0085 155.5 40.6335C155.732 41.2585 156.089 41.7628 156.572 42.1463C157.055 42.5298 157.671 42.7216 158.419 42.7216ZM167.597 37.4375V44H165.921V33.0909H167.54V34.7955H167.682C167.938 34.2415 168.326 33.7964 168.847 33.4602C169.368 33.1193 170.04 32.9489 170.864 32.9489C171.603 32.9489 172.249 33.1004 172.803 33.4034C173.357 33.7017 173.788 34.1562 174.096 34.767C174.403 35.3731 174.557 36.1402 174.557 37.0682V44H172.881V37.1818C172.881 36.3248 172.658 35.6572 172.213 35.179C171.768 34.696 171.158 34.4545 170.381 34.4545C169.846 34.4545 169.368 34.5705 168.946 34.8026C168.53 35.0346 168.201 35.3731 167.959 35.8182C167.718 36.2633 167.597 36.803 167.597 37.4375ZM182.052 44.2273C181.029 44.2273 180.148 43.9858 179.41 43.5028C178.671 43.0199 178.103 42.3546 177.705 41.5071C177.308 40.6596 177.109 39.6913 177.109 38.6023C177.109 37.4943 177.312 36.5166 177.719 35.669C178.131 34.8168 178.704 34.1515 179.438 33.6733C180.177 33.1903 181.039 32.9489 182.023 32.9489C182.79 32.9489 183.482 33.0909 184.097 33.375C184.713 33.6591 185.217 34.0568 185.61 34.5682C186.003 35.0795 186.247 35.6761 186.342 36.358H184.665C184.538 35.8608 184.254 35.4205 183.813 35.0369C183.378 34.6487 182.79 34.4545 182.052 34.4545C181.398 34.4545 180.826 34.625 180.333 34.9659C179.845 35.3021 179.464 35.7779 179.19 36.3935C178.92 37.0043 178.785 37.7216 178.785 38.5455C178.785 39.3883 178.917 40.1222 179.183 40.7472C179.452 41.3722 179.831 41.8575 180.319 42.2031C180.811 42.5488 181.389 42.7216 182.052 42.7216C182.487 42.7216 182.883 42.6458 183.238 42.4943C183.593 42.3428 183.894 42.125 184.14 41.8409C184.386 41.5568 184.561 41.2159 184.665 40.8182H186.342C186.247 41.4621 186.013 42.0421 185.638 42.5582C185.269 43.0696 184.779 43.4768 184.168 43.7798C183.562 44.0781 182.857 44.2273 182.052 44.2273ZM190.468 29.4545V44H188.792V29.4545H190.468ZM200.413 39.5398V33.0909H202.089V44H200.413V42.1534H200.299C200.044 42.7074 199.646 43.1785 199.106 43.5668C198.566 43.9503 197.885 44.142 197.061 44.142C196.379 44.142 195.773 43.9929 195.243 43.6946C194.712 43.3916 194.296 42.937 193.993 42.331C193.69 41.7202 193.538 40.9508 193.538 40.0227V33.0909H195.214V39.9091C195.214 40.7045 195.437 41.339 195.882 41.8125C196.332 42.286 196.904 42.5227 197.6 42.5227C198.017 42.5227 198.441 42.4162 198.872 42.2031C199.307 41.9901 199.672 41.6634 199.966 41.223C200.264 40.7827 200.413 40.2216 200.413 39.5398ZM205.159 44V33.0909H206.835V44H205.159ZM205.244 31.6136L206.977 28.3182H208.938L206.722 31.6136H205.244ZM214.025 44.2273C213.115 44.2273 212.313 43.9976 211.617 43.5384C210.921 43.0743 210.376 42.4209 209.983 41.5781C209.59 40.7306 209.394 39.7292 209.394 38.5739C209.394 37.428 209.59 36.4337 209.983 35.5909C210.376 34.7481 210.923 34.0971 211.624 33.6378C212.325 33.1785 213.134 32.9489 214.053 32.9489C214.763 32.9489 215.324 33.0672 215.736 33.304C216.153 33.536 216.47 33.8011 216.688 34.0994C216.91 34.393 217.083 34.6345 217.206 34.8239H217.348V29.4545H219.025V44H217.405V42.3239H217.206C217.083 42.5227 216.908 42.7737 216.681 43.0767C216.453 43.375 216.129 43.6425 215.708 43.8793C215.286 44.1113 214.725 44.2273 214.025 44.2273ZM214.252 42.7216C214.924 42.7216 215.492 42.5464 215.956 42.196C216.42 41.8409 216.773 41.3509 217.015 40.7259C217.256 40.0961 217.377 39.3693 217.377 38.5455C217.377 37.7311 217.258 37.0185 217.022 36.4077C216.785 35.7921 216.435 35.3139 215.971 34.973C215.507 34.6274 214.934 34.4545 214.252 34.4545C213.542 34.4545 212.95 34.6368 212.476 35.0014C212.007 35.3613 211.655 35.8513 211.418 36.4716C211.186 37.0871 211.07 37.7784 211.07 38.5455C211.07 39.322 211.188 40.0275 211.425 40.6619C211.667 41.2917 212.022 41.7936 212.49 42.1676C212.964 42.5369 213.551 42.7216 214.252 42.7216ZM226.759 44.2273C225.774 44.2273 224.91 43.9929 224.167 43.5241C223.428 43.0554 222.85 42.3996 222.434 41.5568C222.022 40.714 221.816 39.7292 221.816 38.6023C221.816 37.4659 222.022 36.474 222.434 35.6264C222.85 34.7789 223.428 34.1207 224.167 33.652C224.91 33.1832 225.774 32.9489 226.759 32.9489C227.744 32.9489 228.605 33.1832 229.344 33.652C230.087 34.1207 230.665 34.7789 231.077 35.6264C231.494 36.474 231.702 37.4659 231.702 38.6023C231.702 39.7292 231.494 40.714 231.077 41.5568C230.665 42.3996 230.087 43.0554 229.344 43.5241C228.605 43.9929 227.744 44.2273 226.759 44.2273ZM226.759 42.7216C227.507 42.7216 228.123 42.5298 228.605 42.1463C229.088 41.7628 229.446 41.2585 229.678 40.6335C229.91 40.0085 230.026 39.3314 230.026 38.6023C230.026 37.8731 229.91 37.1937 229.678 36.5639C229.446 35.9342 229.088 35.4252 228.605 35.0369C228.123 34.6487 227.507 34.4545 226.759 34.4545C226.011 34.4545 225.395 34.6487 224.912 35.0369C224.429 35.4252 224.072 35.9342 223.84 36.5639C223.608 37.1937 223.492 37.8731 223.492 38.6023C223.492 39.3314 223.608 40.0085 223.84 40.6335C224.072 41.2585 224.429 41.7628 224.912 42.1463C225.395 42.5298 226.011 42.7216 226.759 42.7216ZM241.988 35.5341L240.482 35.9602C240.388 35.7093 240.248 35.4654 240.063 35.2287C239.883 34.9872 239.637 34.7884 239.325 34.6321C239.012 34.4759 238.612 34.3977 238.124 34.3977C237.457 34.3977 236.9 34.5516 236.455 34.8594C236.015 35.1624 235.795 35.5483 235.795 36.017C235.795 36.4337 235.946 36.7628 236.249 37.0043C236.552 37.2457 237.026 37.447 237.67 37.608L239.289 38.0057C240.264 38.2424 240.991 38.6046 241.469 39.0923C241.948 39.5753 242.187 40.1979 242.187 40.9602C242.187 41.5852 242.007 42.1439 241.647 42.6364C241.292 43.1288 240.795 43.517 240.156 43.8011C239.516 44.0852 238.773 44.2273 237.925 44.2273C236.813 44.2273 235.892 43.9858 235.163 43.5028C234.433 43.0199 233.972 42.3144 233.778 41.3864L235.369 40.9886C235.52 41.5758 235.807 42.0161 236.228 42.3097C236.654 42.6032 237.21 42.75 237.897 42.75C238.678 42.75 239.299 42.5843 239.758 42.2528C240.222 41.9167 240.454 41.5142 240.454 41.0455C240.454 40.6667 240.321 40.3494 240.056 40.0938C239.791 39.8333 239.384 39.6392 238.835 39.5114L237.016 39.0852C236.017 38.8485 235.283 38.4815 234.815 37.9844C234.351 37.4825 234.119 36.8551 234.119 36.1023C234.119 35.4867 234.291 34.9422 234.637 34.4688C234.987 33.9953 235.463 33.6236 236.065 33.3537C236.671 33.0838 237.357 32.9489 238.124 32.9489C239.204 32.9489 240.051 33.1856 240.667 33.6591C241.287 34.1326 241.728 34.7576 241.988 35.5341Z" fill="black"/>
</svg>
