<svg width="206" height="46" viewBox="0 0 206 46" fill="none" xmlns="http://www.w3.org/2000/svg">
<rect width="206" height="46" rx="23" fill="#D9D9D9"/>
<path d="M70.7614 33V18.4545H72.5227V31.4375H79.2841V33H70.7614ZM86.2159 33.2273C85.2311 33.2273 84.367 32.9929 83.6236 32.5241C82.8849 32.0554 82.3073 31.3996 81.8906 30.5568C81.4787 29.714 81.2727 28.7292 81.2727 27.6023C81.2727 26.4659 81.4787 25.474 81.8906 24.6264C82.3073 23.7789 82.8849 23.1207 83.6236 22.652C84.367 22.1832 85.2311 21.9489 86.2159 21.9489C87.2008 21.9489 88.0625 22.1832 88.8011 22.652C89.5445 23.1207 90.1222 23.7789 90.5341 24.6264C90.9508 25.474 91.1591 26.4659 91.1591 27.6023C91.1591 28.7292 90.9508 29.714 90.5341 30.5568C90.1222 31.3996 89.5445 32.0554 88.8011 32.5241C88.0625 32.9929 87.2008 33.2273 86.2159 33.2273ZM86.2159 31.7216C86.964 31.7216 87.5795 31.5298 88.0625 31.1463C88.5455 30.7628 88.9029 30.2585 89.1349 29.6335C89.367 29.0085 89.483 28.3314 89.483 27.6023C89.483 26.8731 89.367 26.1937 89.1349 25.5639C88.9029 24.9342 88.5455 24.4252 88.0625 24.0369C87.5795 23.6487 86.964 23.4545 86.2159 23.4545C85.4678 23.4545 84.8523 23.6487 84.3693 24.0369C83.8864 24.4252 83.5289 24.9342 83.2969 25.5639C83.0649 26.1937 82.9489 26.8731 82.9489 27.6023C82.9489 28.3314 83.0649 29.0085 83.2969 29.6335C83.5289 30.2585 83.8864 30.7628 84.3693 31.1463C84.8523 31.5298 85.4678 31.7216 86.2159 31.7216ZM98.1211 37.3182C97.3114 37.3182 96.6154 37.214 96.033 37.0057C95.4506 36.8021 94.9653 36.5322 94.5771 36.196C94.1935 35.8646 93.8881 35.5095 93.6609 35.1307L94.9961 34.1932C95.1476 34.392 95.3394 34.6193 95.5714 34.875C95.8034 35.1354 96.1206 35.3603 96.5231 35.5497C96.9303 35.7438 97.4629 35.8409 98.1211 35.8409C99.0018 35.8409 99.7286 35.6278 100.301 35.2017C100.874 34.7756 101.161 34.108 101.161 33.1989V30.983H101.019C100.896 31.1818 100.721 31.428 100.493 31.7216C100.271 32.0104 99.9487 32.2685 99.5273 32.4957C99.1107 32.7183 98.5472 32.8295 97.837 32.8295C96.9563 32.8295 96.1656 32.6212 95.4648 32.2045C94.7688 31.7879 94.2172 31.1818 93.81 30.3864C93.4076 29.5909 93.2063 28.625 93.2063 27.4886C93.2063 26.3712 93.4028 25.3982 93.7958 24.5696C94.1888 23.7363 94.7357 23.0923 95.4364 22.6378C96.1372 22.1785 96.9469 21.9489 97.8654 21.9489C98.5756 21.9489 99.1391 22.0672 99.5558 22.304C99.9772 22.536 100.299 22.8011 100.522 23.0994C100.749 23.393 100.924 23.6345 101.047 23.8239H101.218V22.0909H102.837V33.3125C102.837 34.25 102.624 35.0123 102.198 35.5994C101.776 36.1913 101.208 36.6245 100.493 36.8991C99.783 37.1785 98.9923 37.3182 98.1211 37.3182ZM98.0643 31.3239C98.7366 31.3239 99.3048 31.17 99.7688 30.8622C100.233 30.5545 100.586 30.1117 100.827 29.5341C101.069 28.9564 101.189 28.2652 101.189 27.4602C101.189 26.6742 101.071 25.9806 100.834 25.3793C100.597 24.7779 100.247 24.3068 99.783 23.9659C99.319 23.625 98.7461 23.4545 98.0643 23.4545C97.354 23.4545 96.7622 23.6345 96.2887 23.9943C95.82 24.3542 95.4672 24.8371 95.2305 25.4432C94.9985 26.0492 94.8825 26.7216 94.8825 27.4602C94.8825 28.2178 95.0008 28.8878 95.2376 29.4702C95.479 30.0478 95.8342 30.5024 96.3029 30.8338C96.7764 31.1605 97.3635 31.3239 98.0643 31.3239ZM105.905 33V22.0909H107.581V33H105.905ZM106.757 20.2727C106.431 20.2727 106.149 20.1615 105.912 19.9389C105.68 19.7164 105.564 19.4489 105.564 19.1364C105.564 18.8239 105.68 18.5563 105.912 18.3338C106.149 18.1113 106.431 18 106.757 18C107.084 18 107.364 18.1113 107.596 18.3338C107.832 18.5563 107.951 18.8239 107.951 19.1364C107.951 19.4489 107.832 19.7164 107.596 19.9389C107.364 20.1615 107.084 20.2727 106.757 20.2727ZM112.327 26.4375V33H110.651V22.0909H112.271V23.7955H112.413C112.668 23.2415 113.057 22.7964 113.577 22.4602C114.098 22.1193 114.771 21.9489 115.594 21.9489C116.333 21.9489 116.979 22.1004 117.533 22.4034C118.087 22.7017 118.518 23.1562 118.826 23.767C119.134 24.3731 119.288 25.1402 119.288 26.0682V33H117.612V26.1818C117.612 25.3248 117.389 24.6572 116.944 24.179C116.499 23.696 115.888 23.4545 115.112 23.4545C114.576 23.4545 114.098 23.5705 113.677 23.8026C113.26 24.0346 112.931 24.3731 112.69 24.8182C112.448 25.2633 112.327 25.803 112.327 26.4375Z" fill="black"/>
</svg>
