<svg width="395" height="68" viewBox="0 0 395 68" fill="none" xmlns="http://www.w3.org/2000/svg">
<rect width="344" height="68" rx="34" fill="white"/>
<path d="M25.7045 34C25.5483 33.5218 25.3423 33.0933 25.0866 32.7145C24.8357 32.331 24.535 32.0043 24.1847 31.7344C23.839 31.4645 23.446 31.2585 23.0057 31.1165C22.5653 30.9744 22.0824 30.9034 21.5568 30.9034C20.6951 30.9034 19.9115 31.1259 19.206 31.571C18.5005 32.0161 17.9394 32.6719 17.5227 33.5384C17.1061 34.4048 16.8977 35.4678 16.8977 36.7273C16.8977 37.9867 17.1084 39.0497 17.5298 39.9162C17.9512 40.7827 18.5218 41.4384 19.2415 41.8835C19.9612 42.3286 20.7708 42.5511 21.6705 42.5511C22.5038 42.5511 23.2377 42.3736 23.8722 42.0185C24.5114 41.6586 25.0085 41.152 25.3636 40.4986C25.7235 39.8404 25.9034 39.0663 25.9034 38.1761L26.4432 38.2898H22.0682V36.7273H27.608V38.2898C27.608 39.4877 27.3523 40.5294 26.8409 41.4148C26.3343 42.3002 25.6335 42.9867 24.7386 43.4744C23.8485 43.9574 22.8258 44.1989 21.6705 44.1989C20.3826 44.1989 19.2509 43.8958 18.2756 43.2898C17.3049 42.6837 16.5473 41.822 16.0028 40.7045C15.4631 39.5871 15.1932 38.2614 15.1932 36.7273C15.1932 35.5767 15.3471 34.5421 15.6548 33.6236C15.9673 32.7003 16.4077 31.9143 16.9759 31.2656C17.544 30.617 18.2164 30.1198 18.9929 29.7741C19.7694 29.4285 20.6241 29.2557 21.5568 29.2557C22.3239 29.2557 23.0388 29.3717 23.7017 29.6037C24.3693 29.831 24.9635 30.1553 25.4844 30.5767C26.0099 30.9934 26.4479 31.4929 26.7983 32.0753C27.1487 32.6529 27.3902 33.2945 27.5227 34H25.7045ZM34.9712 44.2273C33.9201 44.2273 33.0134 43.9953 32.2511 43.5312C31.4935 43.0625 30.9087 42.4091 30.4968 41.571C30.0896 40.7282 29.886 39.7481 29.886 38.6307C29.886 37.5133 30.0896 36.5284 30.4968 35.6761C30.9087 34.8191 31.4817 34.1515 32.2156 33.6733C32.9542 33.1903 33.8159 32.9489 34.8008 32.9489C35.369 32.9489 35.93 33.0436 36.484 33.233C37.038 33.4223 37.5423 33.7301 37.9968 34.1562C38.4513 34.5777 38.8136 35.1364 39.0835 35.8324C39.3533 36.5284 39.4883 37.3854 39.4883 38.4034V39.1136H31.0792V37.6648H37.7837C37.7837 37.0492 37.6606 36.5 37.4144 36.017C37.1729 35.5341 36.8273 35.1529 36.3775 34.8736C35.9324 34.5942 35.4068 34.4545 34.8008 34.4545C34.1332 34.4545 33.5555 34.6203 33.0678 34.9517C32.5849 35.2784 32.2132 35.7045 31.9528 36.2301C31.6924 36.7557 31.5621 37.3191 31.5621 37.9205V38.8864C31.5621 39.7102 31.7042 40.4086 31.9883 40.9815C32.2771 41.5497 32.6772 41.983 33.1886 42.2812C33.6999 42.5748 34.2942 42.7216 34.9712 42.7216C35.4116 42.7216 35.8093 42.66 36.1644 42.5369C36.5243 42.4091 36.8344 42.2197 37.0948 41.9688C37.3552 41.7131 37.5565 41.3958 37.6985 41.017L39.3178 41.4716C39.1474 42.0208 38.8609 42.5038 38.4585 42.9205C38.056 43.3324 37.5588 43.6544 36.967 43.8864C36.3751 44.1136 35.7099 44.2273 34.9712 44.2273ZM42.038 44V33.0909H43.6573V34.7386H43.771C43.9698 34.1989 44.3297 33.7609 44.8505 33.4247C45.3713 33.0885 45.9585 32.9205 46.6119 32.9205C46.735 32.9205 46.8888 32.9228 47.0735 32.9276C47.2582 32.9323 47.3978 32.9394 47.4925 32.9489V34.6534C47.4357 34.6392 47.3055 34.6179 47.1019 34.5895C46.9031 34.5563 46.6924 34.5398 46.4698 34.5398C45.9395 34.5398 45.466 34.651 45.0494 34.8736C44.6374 35.0914 44.3107 35.3944 44.0692 35.7827C43.8325 36.1662 43.7141 36.6042 43.7141 37.0966V44H42.038ZM52.6896 44.2557C51.9983 44.2557 51.371 44.1255 50.8075 43.8651C50.2441 43.5999 49.7966 43.2188 49.4652 42.7216C49.1338 42.2197 48.968 41.6136 48.968 40.9034C48.968 40.2784 49.0911 39.7718 49.3374 39.3835C49.5836 38.9905 49.9126 38.6828 50.3246 38.4602C50.7365 38.2377 51.1911 38.072 51.6882 37.9631C52.1901 37.8494 52.6944 37.7595 53.201 37.6932C53.8639 37.608 54.4013 37.544 54.8132 37.5014C55.2299 37.4541 55.5329 37.3759 55.7223 37.267C55.9164 37.1581 56.0135 36.9687 56.0135 36.6989V36.642C56.0135 35.9413 55.8217 35.3968 55.4382 35.0085C55.0594 34.6203 54.4841 34.4261 53.7124 34.4261C52.9122 34.4261 52.2848 34.6013 51.8303 34.9517C51.3757 35.3021 51.0561 35.6761 50.8714 36.0739L49.2805 35.5057C49.5646 34.8428 49.9434 34.3267 50.4169 33.9574C50.8951 33.5833 51.416 33.3229 51.9794 33.1761C52.5476 33.0246 53.1063 32.9489 53.6555 32.9489C54.0059 32.9489 54.4084 32.9915 54.8629 33.0767C55.3222 33.1572 55.7649 33.3253 56.1911 33.581C56.6219 33.8366 56.9794 34.2225 57.2635 34.7386C57.5476 35.2547 57.6896 35.946 57.6896 36.8125V44H56.0135V42.5227H55.9283C55.8146 42.7595 55.6252 43.0128 55.3601 43.2827C55.0949 43.5526 54.7422 43.7822 54.3018 43.9716C53.8615 44.161 53.3241 44.2557 52.6896 44.2557ZM52.9453 42.75C53.6082 42.75 54.1669 42.6198 54.6214 42.3594C55.0807 42.099 55.4264 41.7628 55.6584 41.3509C55.8951 40.9389 56.0135 40.5057 56.0135 40.0511V38.517C55.9425 38.6023 55.7862 38.6804 55.5447 38.7514C55.308 38.8177 55.0334 38.8769 54.7209 38.929C54.4131 38.9763 54.1125 39.0189 53.8189 39.0568C53.5301 39.09 53.2957 39.1184 53.1158 39.142C52.6802 39.1989 52.273 39.2912 51.8942 39.419C51.5201 39.5421 51.2171 39.7292 50.9851 39.9801C50.7578 40.2263 50.6442 40.5625 50.6442 40.9886C50.6442 41.571 50.8596 42.0114 51.2905 42.3097C51.7261 42.6032 52.2777 42.75 52.9453 42.75ZM66.6012 44V29.4545H71.516C72.6571 29.4545 73.5898 29.6605 74.3143 30.0724C75.0434 30.4796 75.5832 31.0312 75.9336 31.7273C76.284 32.4233 76.4592 33.1998 76.4592 34.0568C76.4592 34.9138 76.284 35.6927 75.9336 36.3935C75.588 37.0942 75.0529 37.6529 74.3285 38.0696C73.604 38.4815 72.676 38.6875 71.5444 38.6875H68.0217V37.125H71.4876C72.2688 37.125 72.8962 36.9901 73.3697 36.7202C73.8432 36.4503 74.1864 36.0857 74.3995 35.6264C74.6173 35.1624 74.7262 34.6392 74.7262 34.0568C74.7262 33.4744 74.6173 32.9536 74.3995 32.4943C74.1864 32.035 73.8408 31.6752 73.3626 31.4148C72.8844 31.1496 72.2499 31.017 71.4592 31.017H68.3626V44H66.6012ZM83.7852 44H79.2965V29.4545H83.984C85.395 29.4545 86.6024 29.7457 87.6062 30.3281C88.61 30.9058 89.3794 31.7367 89.9144 32.821C90.4495 33.9006 90.717 35.1932 90.717 36.6989C90.717 38.214 90.4471 39.5185 89.9073 40.6122C89.3675 41.7012 88.5816 42.5393 87.5494 43.1264C86.5172 43.7088 85.2624 44 83.7852 44ZM81.0579 42.4375H83.6715C84.8742 42.4375 85.8709 42.2055 86.6616 41.7415C87.4523 41.2775 88.0418 40.617 88.43 39.7599C88.8183 38.9029 89.0124 37.8826 89.0124 36.6989C89.0124 35.5246 88.8207 34.5137 88.4371 33.6662C88.0536 32.8139 87.4807 32.1605 86.7184 31.706C85.9561 31.2467 85.0067 31.017 83.8704 31.017H81.0579V42.4375ZM93.6715 44V29.4545H102.393V31.017H95.4329V35.9318H101.74V37.4943H95.4329V44H93.6715ZM114.927 44.2273C114.018 44.2273 113.215 43.9976 112.519 43.5384C111.823 43.0743 111.279 42.4209 110.886 41.5781C110.493 40.7306 110.296 39.7292 110.296 38.5739C110.296 37.428 110.493 36.4337 110.886 35.5909C111.279 34.7481 111.826 34.0971 112.526 33.6378C113.227 33.1785 114.037 32.9489 114.955 32.9489C115.665 32.9489 116.227 33.0672 116.638 33.304C117.055 33.536 117.372 33.8011 117.59 34.0994C117.813 34.393 117.986 34.6345 118.109 34.8239H118.251V29.4545H119.927V44H118.308V42.3239H118.109C117.986 42.5227 117.81 42.7737 117.583 43.0767C117.356 43.375 117.031 43.6425 116.61 43.8793C116.189 44.1113 115.628 44.2273 114.927 44.2273ZM115.154 42.7216C115.826 42.7216 116.395 42.5464 116.859 42.196C117.323 41.8409 117.675 41.3509 117.917 40.7259C118.158 40.0961 118.279 39.3693 118.279 38.5455C118.279 37.7311 118.161 37.0185 117.924 36.4077C117.687 35.7921 117.337 35.3139 116.873 34.973C116.409 34.6274 115.836 34.4545 115.154 34.4545C114.444 34.4545 113.852 34.6368 113.379 35.0014C112.91 35.3613 112.557 35.8513 112.32 36.4716C112.088 37.0871 111.972 37.7784 111.972 38.5455C111.972 39.322 112.091 40.0275 112.327 40.6619C112.569 41.2917 112.924 41.7936 113.393 42.1676C113.866 42.5369 114.453 42.7216 115.154 42.7216ZM127.661 44.2273C126.676 44.2273 125.812 43.9929 125.069 43.5241C124.33 43.0554 123.753 42.3996 123.336 41.5568C122.924 40.714 122.718 39.7292 122.718 38.6023C122.718 37.4659 122.924 36.474 123.336 35.6264C123.753 34.7789 124.33 34.1207 125.069 33.652C125.812 33.1832 126.676 32.9489 127.661 32.9489C128.646 32.9489 129.508 33.1832 130.246 33.652C130.99 34.1207 131.567 34.7789 131.979 35.6264C132.396 36.474 132.604 37.4659 132.604 38.6023C132.604 39.7292 132.396 40.714 131.979 41.5568C131.567 42.3996 130.99 43.0554 130.246 43.5241C129.508 43.9929 128.646 44.2273 127.661 44.2273ZM127.661 42.7216C128.409 42.7216 129.025 42.5298 129.508 42.1463C129.991 41.7628 130.348 41.2585 130.58 40.6335C130.812 40.0085 130.928 39.3314 130.928 38.6023C130.928 37.8731 130.812 37.1937 130.58 36.5639C130.348 35.9342 129.991 35.4252 129.508 35.0369C129.025 34.6487 128.409 34.4545 127.661 34.4545C126.913 34.4545 126.298 34.6487 125.815 35.0369C125.332 35.4252 124.974 35.9342 124.742 36.5639C124.51 37.1937 124.394 37.8731 124.394 38.6023C124.394 39.3314 124.51 40.0085 124.742 40.6335C124.974 41.2585 125.332 41.7628 125.815 42.1463C126.298 42.5298 126.913 42.7216 127.661 42.7216ZM142.89 35.5341L141.385 35.9602C141.29 35.7093 141.15 35.4654 140.966 35.2287C140.786 34.9872 140.539 34.7884 140.227 34.6321C139.914 34.4759 139.514 34.3977 139.027 34.3977C138.359 34.3977 137.803 34.5516 137.358 34.8594C136.917 35.1624 136.697 35.5483 136.697 36.017C136.697 36.4337 136.849 36.7628 137.152 37.0043C137.455 37.2457 137.928 37.447 138.572 37.608L140.191 38.0057C141.167 38.2424 141.894 38.6046 142.372 39.0923C142.85 39.5753 143.089 40.1979 143.089 40.9602C143.089 41.5852 142.909 42.1439 142.549 42.6364C142.194 43.1288 141.697 43.517 141.058 43.8011C140.419 44.0852 139.675 44.2273 138.828 44.2273C137.715 44.2273 136.794 43.9858 136.065 43.5028C135.336 43.0199 134.874 42.3144 134.68 41.3864L136.271 40.9886C136.422 41.5758 136.709 42.0161 137.13 42.3097C137.556 42.6032 138.113 42.75 138.799 42.75C139.581 42.75 140.201 42.5843 140.66 42.2528C141.124 41.9167 141.356 41.5142 141.356 41.0455C141.356 40.6667 141.224 40.3494 140.958 40.0938C140.693 39.8333 140.286 39.6392 139.737 39.5114L137.919 39.0852C136.92 38.8485 136.186 38.4815 135.717 37.9844C135.253 37.4825 135.021 36.8551 135.021 36.1023C135.021 35.4867 135.194 34.9422 135.539 34.4688C135.89 33.9953 136.366 33.6236 136.967 33.3537C137.573 33.0838 138.26 32.9489 139.027 32.9489C140.106 32.9489 140.954 33.1856 141.569 33.6591C142.19 34.1326 142.63 34.7576 142.89 35.5341ZM155.669 44.2273C154.646 44.2273 153.766 43.9858 153.027 43.5028C152.288 43.0199 151.72 42.3546 151.322 41.5071C150.925 40.6596 150.726 39.6913 150.726 38.6023C150.726 37.4943 150.929 36.5166 151.337 35.669C151.749 34.8168 152.321 34.1515 153.055 33.6733C153.794 33.1903 154.656 32.9489 155.641 32.9489C156.408 32.9489 157.099 33.0909 157.714 33.375C158.33 33.6591 158.834 34.0568 159.227 34.5682C159.62 35.0795 159.864 35.6761 159.959 36.358H158.283C158.155 35.8608 157.871 35.4205 157.43 35.0369C156.995 34.6487 156.408 34.4545 155.669 34.4545C155.016 34.4545 154.443 34.625 153.95 34.9659C153.463 35.3021 153.081 35.7779 152.807 36.3935C152.537 37.0043 152.402 37.7216 152.402 38.5455C152.402 39.3883 152.535 40.1222 152.8 40.7472C153.07 41.3722 153.448 41.8575 153.936 42.2031C154.429 42.5488 155.006 42.7216 155.669 42.7216C156.105 42.7216 156.5 42.6458 156.855 42.4943C157.21 42.3428 157.511 42.125 157.757 41.8409C158.003 41.5568 158.179 41.2159 158.283 40.8182H159.959C159.864 41.4621 159.63 42.0421 159.256 42.5582C158.886 43.0696 158.396 43.4768 157.786 43.7798C157.179 44.0781 156.474 44.2273 155.669 44.2273ZM166.841 44.2273C165.856 44.2273 164.992 43.9929 164.249 43.5241C163.51 43.0554 162.932 42.3996 162.516 41.5568C162.104 40.714 161.898 39.7292 161.898 38.6023C161.898 37.4659 162.104 36.474 162.516 35.6264C162.932 34.7789 163.51 34.1207 164.249 33.652C164.992 33.1832 165.856 32.9489 166.841 32.9489C167.826 32.9489 168.688 33.1832 169.426 33.652C170.17 34.1207 170.747 34.7789 171.159 35.6264C171.576 36.474 171.784 37.4659 171.784 38.6023C171.784 39.7292 171.576 40.714 171.159 41.5568C170.747 42.3996 170.17 43.0554 169.426 43.5241C168.688 43.9929 167.826 44.2273 166.841 44.2273ZM166.841 42.7216C167.589 42.7216 168.205 42.5298 168.688 42.1463C169.17 41.7628 169.528 41.2585 169.76 40.6335C169.992 40.0085 170.108 39.3314 170.108 38.6023C170.108 37.8731 169.992 37.1937 169.76 36.5639C169.528 35.9342 169.17 35.4252 168.688 35.0369C168.205 34.6487 167.589 34.4545 166.841 34.4545C166.093 34.4545 165.477 34.6487 164.994 35.0369C164.511 35.4252 164.154 35.9342 163.922 36.5639C163.69 37.1937 163.574 37.8731 163.574 38.6023C163.574 39.3314 163.69 40.0085 163.922 40.6335C164.154 41.2585 164.511 41.7628 164.994 42.1463C165.477 42.5298 166.093 42.7216 166.841 42.7216ZM176.019 37.4375V44H174.343V33.0909H175.962V34.7955H176.104C176.36 34.2415 176.748 33.7964 177.269 33.4602C177.79 33.1193 178.462 32.9489 179.286 32.9489C180.025 32.9489 180.671 33.1004 181.225 33.4034C181.779 33.7017 182.21 34.1562 182.517 34.767C182.825 35.3731 182.979 36.1402 182.979 37.0682V44H181.303V37.1818C181.303 36.3248 181.08 35.6572 180.635 35.179C180.19 34.696 179.579 34.4545 178.803 34.4545C178.268 34.4545 177.79 34.5705 177.368 34.8026C176.952 35.0346 176.623 35.3731 176.381 35.8182C176.14 36.2633 176.019 36.803 176.019 37.4375ZM190.474 44.2273C189.451 44.2273 188.57 43.9858 187.832 43.5028C187.093 43.0199 186.525 42.3546 186.127 41.5071C185.729 40.6596 185.531 39.6913 185.531 38.6023C185.531 37.4943 185.734 36.5166 186.141 35.669C186.553 34.8168 187.126 34.1515 187.86 33.6733C188.599 33.1903 189.46 32.9489 190.445 32.9489C191.212 32.9489 191.904 33.0909 192.519 33.375C193.135 33.6591 193.639 34.0568 194.032 34.5682C194.425 35.0795 194.669 35.6761 194.763 36.358H193.087C192.96 35.8608 192.675 35.4205 192.235 35.0369C191.799 34.6487 191.212 34.4545 190.474 34.4545C189.82 34.4545 189.247 34.625 188.755 34.9659C188.267 35.3021 187.886 35.7779 187.612 36.3935C187.342 37.0043 187.207 37.7216 187.207 38.5455C187.207 39.3883 187.339 40.1222 187.604 40.7472C187.874 41.3722 188.253 41.8575 188.741 42.2031C189.233 42.5488 189.811 42.7216 190.474 42.7216C190.909 42.7216 191.305 42.6458 191.66 42.4943C192.015 42.3428 192.316 42.125 192.562 41.8409C192.808 41.5568 192.983 41.2159 193.087 40.8182H194.763C194.669 41.4621 194.434 42.0421 194.06 42.5582C193.691 43.0696 193.201 43.4768 192.59 43.7798C191.984 44.0781 191.279 44.2273 190.474 44.2273ZM198.89 29.4545V44H197.214V29.4545H198.89ZM208.835 39.5398V33.0909H210.511V44H208.835V42.1534H208.721C208.466 42.7074 208.068 43.1785 207.528 43.5668C206.988 43.9503 206.306 44.142 205.483 44.142C204.801 44.142 204.195 43.9929 203.664 43.6946C203.134 43.3916 202.717 42.937 202.414 42.331C202.111 41.7202 201.96 40.9508 201.96 40.0227V33.0909H203.636V39.9091C203.636 40.7045 203.859 41.339 204.304 41.8125C204.753 42.286 205.326 42.5227 206.022 42.5227C206.439 42.5227 206.863 42.4162 207.294 42.2031C207.729 41.9901 208.094 41.6634 208.387 41.223C208.686 40.7827 208.835 40.2216 208.835 39.5398ZM213.581 44V33.0909H215.257V44H213.581ZM213.666 31.6136L215.399 28.3182H217.359L215.143 31.6136H213.666ZM222.446 44.2273C221.537 44.2273 220.735 43.9976 220.039 43.5384C219.343 43.0743 218.798 42.4209 218.405 41.5781C218.012 40.7306 217.816 39.7292 217.816 38.5739C217.816 37.428 218.012 36.4337 218.405 35.5909C218.798 34.7481 219.345 34.0971 220.046 33.6378C220.747 33.1785 221.556 32.9489 222.475 32.9489C223.185 32.9489 223.746 33.0672 224.158 33.304C224.575 33.536 224.892 33.8011 225.11 34.0994C225.332 34.393 225.505 34.6345 225.628 34.8239H225.77V29.4545H227.446V44H225.827V42.3239H225.628C225.505 42.5227 225.33 42.7737 225.103 43.0767C224.875 43.375 224.551 43.6425 224.13 43.8793C223.708 44.1113 223.147 44.2273 222.446 44.2273ZM222.674 42.7216C223.346 42.7216 223.914 42.5464 224.378 42.196C224.842 41.8409 225.195 41.3509 225.436 40.7259C225.678 40.0961 225.799 39.3693 225.799 38.5455C225.799 37.7311 225.68 37.0185 225.444 36.4077C225.207 35.7921 224.856 35.3139 224.392 34.973C223.928 34.6274 223.355 34.4545 222.674 34.4545C221.963 34.4545 221.372 34.6368 220.898 35.0014C220.429 35.3613 220.077 35.8513 219.84 36.4716C219.608 37.0871 219.492 37.7784 219.492 38.5455C219.492 39.322 219.61 40.0275 219.847 40.6619C220.088 41.2917 220.444 41.7936 220.912 42.1676C221.386 42.5369 221.973 42.7216 222.674 42.7216ZM235.181 44.2273C234.196 44.2273 233.332 43.9929 232.588 43.5241C231.85 43.0554 231.272 42.3996 230.855 41.5568C230.444 40.714 230.238 39.7292 230.238 38.6023C230.238 37.4659 230.444 36.474 230.855 35.6264C231.272 34.7789 231.85 34.1207 232.588 33.652C233.332 33.1832 234.196 32.9489 235.181 32.9489C236.166 32.9489 237.027 33.1832 237.766 33.652C238.509 34.1207 239.087 34.7789 239.499 35.6264C239.916 36.474 240.124 37.4659 240.124 38.6023C240.124 39.7292 239.916 40.714 239.499 41.5568C239.087 42.3996 238.509 43.0554 237.766 43.5241C237.027 43.9929 236.166 44.2273 235.181 44.2273ZM235.181 42.7216C235.929 42.7216 236.544 42.5298 237.027 42.1463C237.51 41.7628 237.868 41.2585 238.1 40.6335C238.332 40.0085 238.448 39.3314 238.448 38.6023C238.448 37.8731 238.332 37.1937 238.1 36.5639C237.868 35.9342 237.51 35.4252 237.027 35.0369C236.544 34.6487 235.929 34.4545 235.181 34.4545C234.433 34.4545 233.817 34.6487 233.334 35.0369C232.851 35.4252 232.494 35.9342 232.262 36.5639C232.03 37.1937 231.914 37.8731 231.914 38.6023C231.914 39.3314 232.03 40.0085 232.262 40.6335C232.494 41.2585 232.851 41.7628 233.334 42.1463C233.817 42.5298 234.433 42.7216 235.181 42.7216ZM250.41 35.5341L248.904 35.9602C248.809 35.7093 248.67 35.4654 248.485 35.2287C248.305 34.9872 248.059 34.7884 247.746 34.6321C247.434 34.4759 247.034 34.3977 246.546 34.3977C245.879 34.3977 245.322 34.5516 244.877 34.8594C244.437 35.1624 244.217 35.5483 244.217 36.017C244.217 36.4337 244.368 36.7628 244.671 37.0043C244.974 37.2457 245.448 37.447 246.092 37.608L247.711 38.0057C248.686 38.2424 249.413 38.6046 249.891 39.0923C250.37 39.5753 250.609 40.1979 250.609 40.9602C250.609 41.5852 250.429 42.1439 250.069 42.6364C249.714 43.1288 249.217 43.517 248.577 43.8011C247.938 44.0852 247.195 44.2273 246.347 44.2273C245.235 44.2273 244.314 43.9858 243.585 43.5028C242.855 43.0199 242.394 42.3144 242.2 41.3864L243.79 40.9886C243.942 41.5758 244.228 42.0161 244.65 42.3097C245.076 42.6032 245.632 42.75 246.319 42.75C247.1 42.75 247.72 42.5843 248.18 42.2528C248.644 41.9167 248.876 41.5142 248.876 41.0455C248.876 40.6667 248.743 40.3494 248.478 40.0938C248.213 39.8333 247.806 39.6392 247.256 39.5114L245.438 39.0852C244.439 38.8485 243.705 38.4815 243.237 37.9844C242.772 37.4825 242.54 36.8551 242.54 36.1023C242.54 35.4867 242.713 34.9422 243.059 34.4688C243.409 33.9953 243.885 33.6236 244.487 33.3537C245.093 33.0838 245.779 32.9489 246.546 32.9489C247.626 32.9489 248.473 33.1856 249.089 33.6591C249.709 34.1326 250.149 34.7576 250.41 35.5341ZM262.876 44.2273C261.967 44.2273 261.164 43.9976 260.468 43.5384C259.772 43.0743 259.228 42.4209 258.835 41.5781C258.442 40.7306 258.245 39.7292 258.245 38.5739C258.245 37.428 258.442 36.4337 258.835 35.5909C259.228 34.7481 259.775 34.0971 260.475 33.6378C261.176 33.1785 261.986 32.9489 262.904 32.9489C263.615 32.9489 264.176 33.0672 264.588 33.304C265.004 33.536 265.322 33.8011 265.539 34.0994C265.762 34.393 265.935 34.6345 266.058 34.8239H266.2V29.4545H267.876V44H266.257V42.3239H266.058C265.935 42.5227 265.76 42.7737 265.532 43.0767C265.305 43.375 264.981 43.6425 264.559 43.8793C264.138 44.1113 263.577 44.2273 262.876 44.2273ZM263.103 42.7216C263.776 42.7216 264.344 42.5464 264.808 42.196C265.272 41.8409 265.625 41.3509 265.866 40.7259C266.108 40.0961 266.228 39.3693 266.228 38.5455C266.228 37.7311 266.11 37.0185 265.873 36.4077C265.636 35.7921 265.286 35.3139 264.822 34.973C264.358 34.6274 263.785 34.4545 263.103 34.4545C262.393 34.4545 261.801 34.6368 261.328 35.0014C260.859 35.3613 260.506 35.8513 260.27 36.4716C260.038 37.0871 259.922 37.7784 259.922 38.5455C259.922 39.322 260.04 40.0275 260.277 40.6619C260.518 41.2917 260.873 41.7936 261.342 42.1676C261.815 42.5369 262.403 42.7216 263.103 42.7216ZM275.752 44.2273C274.701 44.2273 273.795 43.9953 273.032 43.5312C272.275 43.0625 271.69 42.4091 271.278 41.571C270.871 40.7282 270.667 39.7481 270.667 38.6307C270.667 37.5133 270.871 36.5284 271.278 35.6761C271.69 34.8191 272.263 34.1515 272.997 33.6733C273.735 33.1903 274.597 32.9489 275.582 32.9489C276.15 32.9489 276.711 33.0436 277.265 33.233C277.819 33.4223 278.324 33.7301 278.778 34.1562C279.233 34.5777 279.595 35.1364 279.865 35.8324C280.135 36.5284 280.27 37.3854 280.27 38.4034V39.1136H271.86V37.6648H278.565C278.565 37.0492 278.442 36.5 278.196 36.017C277.954 35.5341 277.609 35.1529 277.159 34.8736C276.714 34.5942 276.188 34.4545 275.582 34.4545C274.914 34.4545 274.337 34.6203 273.849 34.9517C273.366 35.2784 272.994 35.7045 272.734 36.2301C272.474 36.7557 272.343 37.3191 272.343 37.9205V38.8864C272.343 39.7102 272.485 40.4086 272.77 40.9815C273.058 41.5497 273.458 41.983 273.97 42.2812C274.481 42.5748 275.075 42.7216 275.752 42.7216C276.193 42.7216 276.591 42.66 276.946 42.5369C277.306 42.4091 277.616 42.2197 277.876 41.9688C278.136 41.7131 278.338 41.3958 278.48 41.017L280.099 41.4716C279.929 42.0208 279.642 42.5038 279.24 42.9205C278.837 43.3324 278.34 43.6544 277.748 43.8864C277.156 44.1136 276.491 44.2273 275.752 44.2273ZM290.12 37.4375V44H288.444V29.4545H290.12V34.7955H290.262C290.518 34.232 290.902 33.7846 291.413 33.4531C291.929 33.117 292.616 32.9489 293.473 32.9489C294.216 32.9489 294.867 33.098 295.426 33.3963C295.984 33.6899 296.418 34.142 296.725 34.7528C297.038 35.3589 297.194 36.1307 297.194 37.0682V44H295.518V37.1818C295.518 36.3153 295.293 35.6454 294.843 35.1719C294.398 34.6937 293.78 34.4545 292.99 34.4545C292.44 34.4545 291.948 34.5705 291.512 34.8026C291.082 35.0346 290.741 35.3731 290.49 35.8182C290.243 36.2633 290.12 36.803 290.12 37.4375ZM304.692 44.2273C303.708 44.2273 302.844 43.9929 302.1 43.5241C301.362 43.0554 300.784 42.3996 300.367 41.5568C299.955 40.714 299.749 39.7292 299.749 38.6023C299.749 37.4659 299.955 36.474 300.367 35.6264C300.784 34.7789 301.362 34.1207 302.1 33.652C302.844 33.1832 303.708 32.9489 304.692 32.9489C305.677 32.9489 306.539 33.1832 307.278 33.652C308.021 34.1207 308.599 34.7789 309.011 35.6264C309.427 36.474 309.636 37.4659 309.636 38.6023C309.636 39.7292 309.427 40.714 309.011 41.5568C308.599 42.3996 308.021 43.0554 307.278 43.5241C306.539 43.9929 305.677 44.2273 304.692 44.2273ZM304.692 42.7216C305.441 42.7216 306.056 42.5298 306.539 42.1463C307.022 41.7628 307.379 41.2585 307.612 40.6335C307.844 40.0085 307.96 39.3314 307.96 38.6023C307.96 37.8731 307.844 37.1937 307.612 36.5639C307.379 35.9342 307.022 35.4252 306.539 35.0369C306.056 34.6487 305.441 34.4545 304.692 34.4545C303.944 34.4545 303.329 34.6487 302.846 35.0369C302.363 35.4252 302.005 35.9342 301.773 36.5639C301.541 37.1937 301.425 37.8731 301.425 38.6023C301.425 39.3314 301.541 40.0085 301.773 40.6335C302.005 41.2585 302.363 41.7628 302.846 42.1463C303.329 42.5298 303.944 42.7216 304.692 42.7216ZM312.194 33.0909H313.87V44.7955C313.87 45.4678 313.754 46.0502 313.522 46.5426C313.295 47.035 312.949 47.4162 312.485 47.6861C312.026 47.956 311.446 48.0909 310.745 48.0909C310.689 48.0909 310.632 48.0909 310.575 48.0909C310.518 48.0909 310.461 48.0909 310.404 48.0909V46.5284C310.461 46.5284 310.513 46.5284 310.561 46.5284C310.608 46.5284 310.66 46.5284 310.717 46.5284C311.228 46.5284 311.602 46.3769 311.839 46.0739C312.076 45.7756 312.194 45.3494 312.194 44.7955V33.0909ZM313.018 31.2727C312.691 31.2727 312.41 31.1615 312.173 30.9389C311.941 30.7164 311.825 30.4489 311.825 30.1364C311.825 29.8239 311.941 29.5563 312.173 29.3338C312.41 29.1113 312.691 29 313.018 29C313.345 29 313.624 29.1113 313.856 29.3338C314.093 29.5563 314.211 29.8239 314.211 30.1364C314.211 30.4489 314.093 30.7164 313.856 30.9389C313.624 31.1615 313.345 31.2727 313.018 31.2727ZM321.514 44.2273C320.463 44.2273 319.556 43.9953 318.794 43.5312C318.036 43.0625 317.452 42.4091 317.04 41.571C316.633 40.7282 316.429 39.7481 316.429 38.6307C316.429 37.5133 316.633 36.5284 317.04 35.6761C317.452 34.8191 318.025 34.1515 318.759 33.6733C319.497 33.1903 320.359 32.9489 321.344 32.9489C321.912 32.9489 322.473 33.0436 323.027 33.233C323.581 33.4223 324.085 33.7301 324.54 34.1562C324.994 34.5777 325.357 35.1364 325.626 35.8324C325.896 36.5284 326.031 37.3854 326.031 38.4034V39.1136H317.622V37.6648H324.327C324.327 37.0492 324.204 36.5 323.957 36.017C323.716 35.5341 323.37 35.1529 322.92 34.8736C322.475 34.5942 321.95 34.4545 321.344 34.4545C320.676 34.4545 320.098 34.6203 319.611 34.9517C319.128 35.2784 318.756 35.7045 318.496 36.2301C318.235 36.7557 318.105 37.3191 318.105 37.9205V38.8864C318.105 39.7102 318.247 40.4086 318.531 40.9815C318.82 41.5497 319.22 41.983 319.732 42.2812C320.243 42.5748 320.837 42.7216 321.514 42.7216C321.955 42.7216 322.352 42.66 322.707 42.5369C323.067 42.4091 323.377 42.2197 323.638 41.9688C323.898 41.7131 324.099 41.3958 324.241 41.017L325.861 41.4716C325.69 42.0208 325.404 42.5038 325.001 42.9205C324.599 43.3324 324.102 43.6544 323.51 43.8864C322.918 44.1136 322.253 44.2273 321.514 44.2273Z" fill="black"/>
</svg>
